# xmcd
#
# Track frame offsets: 
#        150
#        19869
#        32692
#        46050
#        60273
#        74523
#        88741
#        100636
#        112845
#        124407
#        138096
#        151963
#        163989
#        177225
#        189914
#        201776
#        217287
#        229928
#        246934
#        260059
#
# Disc length: 3638 seconds
#
# Revision: 0
# Processed by: cddbd v1.5.2PL0 Copyright (c) Steve Scherf et al.
# Submitted via: ExactAudioCopy v0.99pb4
#
DISCID=1a0e3414
DTITLE=Various Artist - The Blues
DYEAR=1900
DGENRE=Blues
TTITLE0=St Louis Blues - Big Joe Turner
TTITLE1=Hoochie Coochie Man - Muddy Waters
TTITLE2=Woke up this morning - B B King
TTITLE3=Boogie Chillin' - John Lee Hooker
TTITLE4=Dust my blues - Elmore James
TTITLE5=Ain't nobody's business - Jimmy Witherspoon
TTITLE6=Don't mess with my baby - Howlin' Wolf
TTITLE7=It's my life - Bobby Bland
TTITLE8=Don't start me talking - Sonny Boy Williamson
TTITLE9=Call it Stormy Monday - T-Bone Walker
TTITLE10=You don't have to go - Jimmy Reed
TTITLE11=My babe - Little Walter
TTITLE12=Mannish Boy - Muddy Waters
TTITLE13=Every day I have the blues - B B King
TTITLE14=The come back - Memphis Slim
TTITLE15=In the evenin' - Big Bill Broozy
TTITLE16=The blues got me rockin' - Champion Jack Dupree
TTITLE17=Roll 'em Pete - Big Joe Turner
TTITLE18=That's all right Mama - Arther Crudup
TTITLE19=Ramblin on my mind - Robert Johnson
EXTD=
EXTT0=
EXTT1=
EXTT2=
EXTT3=
EXTT4=
EXTT5=
EXTT6=
EXTT7=
EXTT8=
EXTT9=
EXTT10=
EXTT11=
EXTT12=
EXTT13=
EXTT14=
EXTT15=
EXTT16=
EXTT17=
EXTT18=
EXTT19=
PLAYORDER=
